HIERARCHY
ROOT Hips
{
	OFFSET 56.877701 -32.693596 43.373703
	CHANNELS 6 Xposition Yposition Zposition Zrotation Xrotation Yrotation
	JOINT Chest
	{
		OFFSET -0.779999 1.005800 5.403099
		CHANNELS 6 Xposition Yposition Zposition Zrotation Xrotation Yrotation
		JOINT Chest2
		{
			OFFSET 0.000000 0.000000 4.236801
			CHANNELS 6 Xposition Yposition Zposition Zrotation Xrotation Yrotation
			JOINT Neck
			{
				OFFSET 0.000000 0.000000 9.874401
				CHANNELS 6 Xposition Yposition Zposition Zrotation Xrotation Yrotation
				JOINT Head
				{
					OFFSET 0.000000 0.000002 2.173893
					CHANNELS 6 Xposition Yposition Zposition Zrotation Xrotation Yrotation
					End Site
					{
						OFFSET 0.000000 0.000000 6.508102
					}
				}
			}
			JOINT LeftCollar
			{
				OFFSET 2.681599 -0.377600 5.432499
				CHANNELS 6 Xposition Yposition Zposition Zrotation Xrotation Yrotation
				JOINT LeftShoulder
				{
					OFFSET 5.161499 0.000000 0.000000
					CHANNELS 6 Xposition Yposition Zposition Zrotation Xrotation Yrotation
					JOINT LeftElbow
					{
						OFFSET 0.000000 0.000000 -10.869099
						CHANNELS 6 Xposition Yposition Zposition Zrotation Xrotation Yrotation
						JOINT LeftWrist
						{
							OFFSET 0.000000 0.000000 -13.344799
							CHANNELS 6 Xposition Yposition Zposition Zrotation Xrotation Yrotation
							End Site
							{
								OFFSET 0.000000 0.000000 -2.173901
							}
						}
					}
				}
			}
			JOINT RightCollar
			{
				OFFSET -2.381901 -1.419600 6.136600
				CHANNELS 6 Xposition Yposition Zposition Zrotation Xrotation Yrotation
				JOINT RightShoulder
				{
					OFFSET -4.550499 0.000000 0.000000
					CHANNELS 6 Xposition Yposition Zposition Zrotation Xrotation Yrotation
					JOINT RightElbow
					{
						OFFSET 0.000000 0.000000 -11.106499
						CHANNELS 6 Xposition Yposition Zposition Zrotation Xrotation Yrotation
						JOINT RightWrist
						{
							OFFSET 0.000000 0.000000 -12.874298
							CHANNELS 6 Xposition Yposition Zposition Zrotation Xrotation Yrotation
							End Site
							{
								OFFSET 0.000000 0.000000 -2.173901
							}
						}
					}
				}
			}
		}
	}
	JOINT LeftHip
	{
		OFFSET 2.431900 0.469601 -2.489399
		CHANNELS 6 Xposition Yposition Zposition Zrotation Xrotation Yrotation
		JOINT LeftKnee
		{
			OFFSET 0.000000 -0.000004 -18.200201
			CHANNELS 6 Xposition Yposition Zposition Zrotation Xrotation Yrotation
			JOINT LeftAnkle
			{
				OFFSET 0.000000 0.000000 -16.279900
				CHANNELS 6 Xposition Yposition Zposition Zrotation Xrotation Yrotation
				End Site
				{
					OFFSET 0.000000 -8.394100 0.000000
				}
			}
		}
	}
	JOINT RightHip
	{
		OFFSET -1.987999 -0.073502 -2.713001
		CHANNELS 6 Xposition Yposition Zposition Zrotation Xrotation Yrotation
		JOINT RightKnee
		{
			OFFSET 0.000000 -0.000004 -19.547802
			CHANNELS 6 Xposition Yposition Zposition Zrotation Xrotation Yrotation
			JOINT RightAnkle
			{
				OFFSET 0.000000 0.000000 -14.881199
				CHANNELS 6 Xposition Yposition Zposition Zrotation Xrotation Yrotation
				End Site
				{
					OFFSET 0.000000 -7.922699 0.000000
				}
			}
		}
	}
}
MOTION
Frames: 4
Frame Time: 0.041667
49.903301 -35.793495 29.874807 4953.385200 25.340994 -3.957656 -0.779999 1.005806 5.403098 -13.404268 -2.242768 4.749573 0.000004 -0.000009 4.236794 3.938932 -3.042126 -0.416544 0.000007 0.000000 9.874402 45.553749 11.683573 -3.931808 0.000001 0.000000 2.173894 3.032849 2.619640 3.991513 2.681598 -0.377605 5.432501 -11.032240 6.672815 -16.013800 5.161491 -0.000006 0.000003 -35.209034 -96.451478 -62.521503 0.000000 0.000002 -10.869101 94.405133 -27.825692 111.931883 0.000001 0.000005 -13.344805 16.157598 -14.102415 -49.650312 -2.381895 -1.419600 6.136597 24.659821 15.335308 -0.043062 -4.550499 -0.000003 0.000004 -1203.357044 -509.489218 -467.451207 0.000001 -0.000003 -11.106493 597.116666 -59.976881 581.628966 0.000008 -0.000008 -12.874298 -266.469531 -1.208705 67.674409 2.431906 0.469612 -2.489401 108.776869 -56.381586 103.128248 0.000003 -0.000007 -18.200193 -109.003023 48.561248 95.567597 0.000002 -0.000003 -16.279902 53.589712 15.152536 30.099028 -1.988006 -0.073495 -2.713003 -64.574405 -36.784745 -61.897244 0.000001 -0.000007 -19.547794 -1898.023674 54.485539 136.190229 -0.000002 -0.000001 -14.881199 2165.095654 26.391931 -335.755489
49.841202 -35.982391 30.423409 4951.090694 25.065739 -4.027856 -0.779989 1.005803 5.403100 -13.875546 -3.019601 4.880019 0.000002 -0.000003 4.236792 4.410066 -3.106467 -0.424352 0.000000 0.000000 9.874398 46.024700 11.484301 -4.471947 0.000000 0.000004 2.173892 2.620892 2.573729 4.101102 2.681600 -0.377599 5.432502 -10.137930 5.775121 -16.624076 5.161510 -0.000009 -0.000004 -31.431038 -97.206720 -59.846643 -0.000010 -0.000005 -10.869099 91.524542 -27.360223 108.497726 -0.000003 -0.000000 -13.344804 12.060681 -14.876102 -49.814356 -2.381895 -1.419599 6.136597 24.605183 15.734635 0.201995 -4.550505 -0.000007 -0.000003 -1202.916087 -509.729423 -467.272147 0.000003 -0.000010 -11.106487 598.692964 -60.314286 582.854685 0.000004 -0.000007 -12.874298 -265.986472 -1.083874 67.800283 2.431906 0.469605 -2.489399 106.577910 -56.446268 99.396485 -0.000000 -0.000001 -18.200201 -107.372213 49.401819 93.580388 0.000004 -0.000006 -16.279902 53.379868 15.049533 30.340172 -1.987995 -0.073497 -2.713001 -63.504859 -36.706352 -59.636424 -0.000008 -0.000008 -19.547794 -1893.323411 54.285777 131.453411 -0.000003 0.000005 -14.881195 2165.265043 26.178353 -335.086704
49.775002 -36.167793 30.990105 4948.551393 24.749351 -3.916515 -0.779995 1.005795 5.403098 -13.722379 -3.664169 4.956613 0.000001 0.000000 4.236797 4.540128 -3.068511 -0.418708 -0.000001 -0.000004 9.874399 46.863857 11.205875 -5.293720 0.000002 0.000006 2.173892 1.942294 2.543651 4.404648 2.681601 -0.377602 5.432500 -9.110207 4.714253 -17.380475 5.161505 0.000000 0.000008 -26.490832 -97.313284 -55.674224 -0.000006 -0.000004 -10.869098 89.778049 -27.287962 105.282018 -0.000004 0.000004 -13.344793 8.026452 -15.631950 -50.299620 -2.381891 -1.419607 6.136600 24.314200 15.440657 0.550111 -4.550505 -0.000015 -0.000007 -1202.687248 -510.531997 -467.646879 0.000002 -0.000012 -11.106495 597.013503 -61.863708 581.234837 0.000005 -0.000006 -12.874300 -267.708937 -0.006209 68.240003 2.431898 0.469594 -2.489402 104.485918 -56.550749 95.596639 -0.000006 -0.000003 -18.200193 -105.423826 50.546538 91.497180 -0.000006 -0.000001 -16.279903 53.096207 15.173002 29.975419 -1.987997 -0.073504 -2.712999 -62.542451 -36.503140 -57.392167 -0.000002 -0.000006 -19.547798 -1889.402117 54.421359 127.201372 0.000002 0.000004 -14.881197 2165.341104 25.831798 -334.925484
49.703503 -36.357395 31.573299 4945.859534 24.278556 -3.752417 -0.779994 1.005807 5.403100 -13.572010 -4.070502 4.985816 -0.000002 0.000005 4.236799 4.606709 -2.989237 -0.407783 -0.000001 0.000001 9.874401 47.133121 11.057649 -5.212617 0.000009 0.000004 2.173892 1.634117 2.477975 4.522655 2.681598 -0.377597 5.432499 -8.041073 3.793368 -17.970752 5.161496 -0.000000 0.000003 -19.192442 -97.470932 -49.253765 -0.000008 0.000002 -10.869100 88.335062 -27.290082 102.088208 0.000006 -0.000002 -13.344795 4.527154 -16.260572 -50.567664 -2.381899 -1.419593 6.136597 24.445401 15.595443 0.781068 -4.550507 -0.000011 -0.000007 -1202.185421 -511.577672 -467.304768 0.000000 -0.000001 -11.106497 596.708057 -62.691725 581.504001 0.000004 -0.000006 -12.874304 -268.042632 0.882877 68.854215 2.431897 0.469611 -2.489399 102.135568 -56.733914 91.459163 0.000002 -0.000003 -18.200207 -103.177111 51.791661 89.192217 0.000005 0.000003 -16.279903 52.725850 15.273824 29.428905 -1.987995 -0.073492 -2.713001 -61.367515 -36.378038 -54.869283 -0.000006 0.000000 -19.547804 -1885.404107 54.248661 122.403192 -0.000001 0.000002 -14.881196 2165.632016 25.507097 -334.659872
